HIERARCHY
ROOT Hips
{
	OFFSET 0.000000 83.214638 0.000000
	CHANNELS 6 Xposition Yposition Zposition Xrotation Yrotation Zrotation
	JOINT Pelvis
	{
		OFFSET 0.000000 0.000000 0.000000
		CHANNELS 3 Xrotation Yrotation Zrotation
		JOINT LeftUpLeg
		{
			OFFSET 8.479700 -4.795502 -0.379100
			CHANNELS 3 Xrotation Yrotation Zrotation
			JOINT LeftLeg
			{
				OFFSET 0.024144 -32.555107 0.112900
				CHANNELS 3 Xrotation Yrotation Zrotation
				JOINT LeftFoot
				{
					OFFSET -0.024144 -32.638630 -3.012600
					CHANNELS 3 Xrotation Yrotation Zrotation
					JOINT LeftToeBase
					{
						OFFSET 0.970200 -13.225400 11.864200
						CHANNELS 3 Xrotation Yrotation Zrotation
						End Site
						{
							OFFSET 0.000000 12.319262 0.000000
						}
					}
					JOINT LFootTongue
					{
						OFFSET 1.142400 -1.059800 6.665200
						CHANNELS 3 Xrotation Yrotation Zrotation
						End Site
						{
							OFFSET 0.000000 12.319262 0.000000
						}
					}
				}
				JOINT LeftPantLeg
				{
					OFFSET 0.918482 -16.533964 -2.284700
					CHANNELS 3 Xrotation Yrotation Zrotation
					End Site
					{
						OFFSET 0.350399 24.744368 0.000000
					}
				}
			}
		}
		JOINT RightUpLeg
		{
			OFFSET -8.479700 -4.795502 -0.379100
			CHANNELS 3 Xrotation Yrotation Zrotation
			JOINT RightLeg
			{
				OFFSET -0.023144 -32.555092 0.112900
				CHANNELS 3 Xrotation Yrotation Zrotation
				JOINT RightFoot
				{
					OFFSET 0.023144 -32.638641 -3.012700
					CHANNELS 3 Xrotation Yrotation Zrotation
					JOINT RightToeBase
					{
						OFFSET -0.970200 -13.225400 11.864200
						CHANNELS 3 Xrotation Yrotation Zrotation
						End Site
						{
							OFFSET 0.000000 12.319244 0.000000
						}
					}
					JOINT RFootTongue
					{
						OFFSET -1.142200 -1.059800 6.665200
						CHANNELS 3 Xrotation Yrotation Zrotation
						End Site
						{
							OFFSET 0.000000 12.319243 0.000000
						}
					}
				}
				JOINT RightPantLeg
				{
					OFFSET -0.919482 -16.533978 -2.284800
					CHANNELS 3 Xrotation Yrotation Zrotation
					End Site
					{
						OFFSET -0.350400 24.744419 0.000000
					}
				}
			}
		}
	}
	JOINT Spine
	{
		OFFSET 0.000000 7.722000 1.166200
		CHANNELS 3 Xrotation Yrotation Zrotation
		JOINT Spine1
		{
			OFFSET 0.000000 12.024101 0.248800
			CHANNELS 3 Xrotation Yrotation Zrotation
			JOINT Spine2
			{
				OFFSET 0.000000 11.502998 -0.491200
				CHANNELS 3 Xrotation Yrotation Zrotation
				JOINT Neck
				{
					OFFSET 0.000000 18.430702 -3.123100
					CHANNELS 3 Xrotation Yrotation Zrotation
					JOINT Head
					{
						OFFSET 0.000000 9.051102 1.034000
						CHANNELS 3 Xrotation Yrotation Zrotation
						JOINT HairB
						{
							OFFSET 0.208400 24.786102 24.822300
							CHANNELS 3 Xrotation Yrotation Zrotation
							End Site
							{
								OFFSET 0.000000 32.263779 0.000000
							}
						}
						JOINT HairA
						{
							OFFSET -7.081100 24.428299 23.196600
							CHANNELS 3 Xrotation Yrotation Zrotation
							End Site
							{
								OFFSET 0.000000 32.263779 0.000000
							}
						}
						JOINT Hat
						{
							OFFSET 16.728800 15.048294 -15.439601
							CHANNELS 3 Xrotation Yrotation Zrotation
							End Site
							{
								OFFSET 0.000000 32.263779 0.000000
							}
						}
					}
				}
				JOINT LeftShoulder
				{
					OFFSET 6.197800 13.665199 -4.064700
					CHANNELS 3 Xrotation Yrotation Zrotation
					JOINT LeftArm
					{
						OFFSET 7.778100 -0.187103 -1.709300
						CHANNELS 3 Xrotation Yrotation Zrotation
						JOINT LeftForeArm
						{
							OFFSET 22.049376 0.000000 0.000000
							CHANNELS 3 Xrotation Yrotation Zrotation
							JOINT LeftHand
							{
								OFFSET 23.009392 0.000000 0.000000
								CHANNELS 3 Xrotation Yrotation Zrotation
								JOINT LeftHandThumb1
								{
									OFFSET 3.507191 -2.063065 3.133727
									CHANNELS 3 Xrotation Yrotation Zrotation
									JOINT LeftHandThumb2
									{
										OFFSET 3.101337 -1.790558 1.790558
										CHANNELS 3 Xrotation Yrotation Zrotation
										JOINT LeftHandThumb3
										{
											OFFSET 3.058640 -1.765907 1.765906
											CHANNELS 3 Xrotation Yrotation Zrotation
											End Site
											{
												OFFSET -0.415260 3.926476 -0.049563
											}
										}
									}
								}
								JOINT LeftHandIndex1
								{
									OFFSET 11.334419 -0.901459 3.706815
									CHANNELS 3 Xrotation Yrotation Zrotation
									JOINT LeftHandIndex2
									{
										OFFSET 3.283112 0.000000 0.000000
										CHANNELS 3 Xrotation Yrotation Zrotation
										JOINT LeftHandIndex3
										{
											OFFSET 3.323853 0.000000 0.000000
											CHANNELS 3 Xrotation Yrotation Zrotation
											End Site
											{
												OFFSET -1.135597 3.097809 0.402452
											}
										}
									}
								}
								JOINT LeftHandMiddle1
								{
									OFFSET 11.335861 0.000000 0.000000
									CHANNELS 3 Xrotation Yrotation Zrotation
									JOINT LeftHandMiddle2
									{
										OFFSET 3.410492 0.000000 0.000000
										CHANNELS 3 Xrotation Yrotation Zrotation
										JOINT LeftHandMiddle3
										{
											OFFSET 3.312172 0.000000 0.000000
											CHANNELS 3 Xrotation Yrotation Zrotation
											End Site
											{
												OFFSET -1.150200 3.080154 0.400270
											}
										}
									}
								}
								JOINT LeftHandRing1
								{
									OFFSET 11.514786 -0.013176 -3.003090
									CHANNELS 3 Xrotation Yrotation Zrotation
									JOINT LeftHandRing2
									{
										OFFSET 3.053307 0.000000 0.000000
										CHANNELS 3 Xrotation Yrotation Zrotation
										JOINT LeftHandRing3
										{
											OFFSET 3.295807 0.000000 0.000000
											CHANNELS 3 Xrotation Yrotation Zrotation
											End Site
											{
												OFFSET -1.281006 3.013344 0.375733
											}
										}
									}
								}
								JOINT LeftHandPinky1
								{
									OFFSET 10.518692 -0.960396 -5.730441
									CHANNELS 3 Xrotation Yrotation Zrotation
									JOINT LeftHandPinky2
									{
										OFFSET 2.861649 0.000000 0.000000
										CHANNELS 3 Xrotation Yrotation Zrotation
										JOINT LeftHandPinky3
										{
											OFFSET 2.863380 0.000000 0.000000
											CHANNELS 3 Xrotation Yrotation Zrotation
											End Site
											{
												OFFSET -0.843597 2.711159 0.369971
											}
										}
									}
								}
							}
							JOINT LSleeve
							{
								OFFSET 6.676277 -0.344902 -1.011730
								CHANNELS 3 Xrotation Yrotation Zrotation
								End Site
								{
									OFFSET 0.000000 14.885353 0.000000
								}
							}
						}
					}
				}
				JOINT RightShoulder
				{
					OFFSET -6.197800 13.665199 -4.064700
					CHANNELS 3 Xrotation Yrotation Zrotation
					JOINT RightArm
					{
						OFFSET -7.778100 -0.187103 -1.709300
						CHANNELS 3 Xrotation Yrotation Zrotation
						JOINT RightForeArm
						{
							OFFSET -22.049376 0.000000 0.000000
							CHANNELS 3 Xrotation Yrotation Zrotation
							JOINT RightHand
							{
								OFFSET -23.009392 0.000000 0.000000
								CHANNELS 3 Xrotation Yrotation Zrotation
								JOINT RightHandThumb1
								{
									OFFSET -3.507191 -2.063065 3.133727
									CHANNELS 3 Xrotation Yrotation Zrotation
									JOINT RightHandThumb2
									{
										OFFSET -3.101337 -1.790558 1.790558
										CHANNELS 3 Xrotation Yrotation Zrotation
										JOINT RightHandThumb3
										{
											OFFSET -3.058640 -1.765907 1.765906
											CHANNELS 3 Xrotation Yrotation Zrotation
											End Site
											{
												OFFSET 0.415260 3.926476 -0.049563
											}
										}
									}
								}
								JOINT RightHandIndex1
								{
									OFFSET -11.334419 -0.901459 3.706815
									CHANNELS 3 Xrotation Yrotation Zrotation
									JOINT RightHandIndex2
									{
										OFFSET -3.283112 0.000000 0.000000
										CHANNELS 3 Xrotation Yrotation Zrotation
										JOINT RightHandIndex3
										{
											OFFSET -3.323853 0.000000 0.000000
											CHANNELS 3 Xrotation Yrotation Zrotation
											End Site
											{
												OFFSET 1.135597 3.097809 0.402452
											}
										}
									}
								}
								JOINT RightHandMiddle1
								{
									OFFSET -11.335861 0.000000 0.000000
									CHANNELS 3 Xrotation Yrotation Zrotation
									JOINT RightHandMiddle2
									{
										OFFSET -3.410492 0.000000 0.000000
										CHANNELS 3 Xrotation Yrotation Zrotation
										JOINT RightHandMiddle3
										{
											OFFSET -3.312172 0.000000 0.000000
											CHANNELS 3 Xrotation Yrotation Zrotation
											End Site
											{
												OFFSET 1.150200 3.080154 0.400270
											}
										}
									}
								}
								JOINT RightHandRing1
								{
									OFFSET -11.514786 -0.013176 -3.003090
									CHANNELS 3 Xrotation Yrotation Zrotation
									JOINT RightHandRing2
									{
										OFFSET -3.053307 0.000000 0.000000
										CHANNELS 3 Xrotation Yrotation Zrotation
										JOINT RightHandRing3
										{
											OFFSET -3.295807 0.000000 0.000000
											CHANNELS 3 Xrotation Yrotation Zrotation
											End Site
											{
												OFFSET 1.281006 3.013344 0.375733
											}
										}
									}
								}
								JOINT RightHandPinky1
								{
									OFFSET -10.518692 -0.960396 -5.730441
									CHANNELS 3 Xrotation Yrotation Zrotation
									JOINT RightHandPinky2
									{
										OFFSET -2.861649 0.000000 0.000000
										CHANNELS 3 Xrotation Yrotation Zrotation
										JOINT RightHandPinky3
										{
											OFFSET -2.863380 0.000000 0.000000
											CHANNELS 3 Xrotation Yrotation Zrotation
											End Site
											{
												OFFSET 0.843597 2.711159 0.369971
											}
										}
									}
								}
							}
							JOINT RSleeve
							{
								OFFSET -6.676277 -0.344902 -1.011730
								CHANNELS 3 Xrotation Yrotation Zrotation
								End Site
								{
									OFFSET 0.000000 14.885353 0.000000
								}
							}
						}
					}
				}
				JOINT Backpack
				{
					OFFSET 0.000000 -2.471497 36.677502
					CHANNELS 3 Xrotation Yrotation Zrotation
					End Site
					{
						OFFSET 0.000000 20.427315 0.000000
					}
				}
				JOINT Hood
				{
					OFFSET 0.000000 18.754097 -10.431000
					CHANNELS 3 Xrotation Yrotation Zrotation
					JOINT Hood1
					{
						OFFSET 0.000000 -5.011002 -7.685901
						CHANNELS 3 Xrotation Yrotation Zrotation
						End Site
						{
							OFFSET 0.000000 9.175140 0.000000
						}
					}
				}
				JOINT LHoodieString
				{
					OFFSET 5.250500 16.397697 3.089900
					CHANNELS 3 Xrotation Yrotation Zrotation
					JOINT LHoodieString1
					{
						OFFSET 0.257700 -6.364304 3.694600
						CHANNELS 3 Xrotation Yrotation Zrotation
						JOINT LHoodieString2
						{
							OFFSET 0.000000 -9.643799 2.679100
							CHANNELS 3 Xrotation Yrotation Zrotation
							End Site
							{
								OFFSET 0.000000 10.009018 0.000000
							}
						}
					}
				}
				JOINT RHoodieString
				{
					OFFSET -5.250500 16.397697 3.089900
					CHANNELS 3 Xrotation Yrotation Zrotation
					JOINT RHoodieString1
					{
						OFFSET -0.257700 -6.364304 3.694600
						CHANNELS 3 Xrotation Yrotation Zrotation
						JOINT RHoodieString2
						{
							OFFSET 0.000000 -9.643799 2.679100
							CHANNELS 3 Xrotation Yrotation Zrotation
							End Site
							{
								OFFSET 0.000000 10.009018 0.000000
							}
						}
					}
				}
			}
			JOINT LBackpack_Strap
			{
				OFFSET 15.223200 -7.719803 -6.610900
				CHANNELS 3 Xrotation Yrotation Zrotation
				End Site
				{
					OFFSET 0.000000 16.040596 0.000000
				}
			}
			JOINT RBackpack_Strap
			{
				OFFSET -15.223000 -7.719803 -6.610900
				CHANNELS 3 Xrotation Yrotation Zrotation
				End Site
				{
					OFFSET 0.000000 16.040596 0.000000
				}
			}
		}
	}
	JOINT BoyFacialAnim_Joint
	{
		OFFSET 1.000000 -82.208099 -1.550900
		CHANNELS 3 Xrotation Yrotation Zrotation
		End Site
		{
			OFFSET 0.000000 30.012791 0.000000
		}
	}
}
MOTION
Frames: 4
Frame Time: 0.033333
0.086862 35.288086 -2.117077 -21.987120 -8.575214 6.591106 -0.000002 0.000000 -0.000000 -85.947672 5.065271 15.861871 74.728424 -1.230174 -2.525652 32.240972 4.556621 -1.095642 0.000000 -0.000000 0.000000 0.000000 -0.000000 -0.000000 0.000001 0.000000 -0.000000 -89.141325 6.931014 -5.565384 73.492323 0.464862 2.463621 36.751756 -4.303217 -6.858725 -0.000000 0.000000 0.000000 -0.000000 0.000000 0.000000 -0.000002 0.000001 -0.000000 7.650896 0.755922 -2.743636 15.337793 1.590153 -5.390204 15.337801 1.590153 -5.390209 16.416192 -2.350500 2.541097 20.839267 -14.224515 16.344728 -0.000004 0.000002 -0.000001 -0.000004 0.000002 -0.000001 -0.000004 0.000002 -0.000001 -0.443867 2.457610 17.879673 7.417466 -28.482292 -61.546650 -177.393755 -98.049995 -176.725981 36.590051 16.076833 50.866939 40.555276 -21.781926 -21.800241 16.626367 37.644437 -12.294471 -0.000002 -0.000001 0.000003 13.239260 10.939527 -59.120260 0.193245 0.567333 -33.101463 -0.000001 0.000001 -0.000003 8.602623 5.921912 -50.919108 -0.420829 -1.912295 -24.105566 0.000000 -0.000001 -0.000003 6.458749 8.493304 -38.011423 -0.684578 -2.508705 -30.943639 0.000000 0.000000 -0.000004 -2.446911 21.998357 -31.564865 -1.530943 -4.423476 -40.646425 -0.000002 0.000001 -0.000002 -0.000002 -0.000000 0.000004 0.646974 0.292776 -1.446552 -33.632336 30.542584 51.767291 -0.037081 124.482807 0.101546 -53.931443 21.942060 -28.882596 -19.407428 -14.688575 16.929662 3.842737 -9.854667 -2.007130 -0.000001 0.000002 -0.000003 -6.483493 -5.763816 17.047621 0.234985 -0.958631 24.711592 0.000003 0.000001 0.000004 -0.685005 -3.994935 39.353084 -0.615729 1.978888 33.932441 0.000005 0.000000 0.000001 -4.034947 2.263008 51.958758 -0.923362 3.013475 29.146763 -0.000001 0.000002 -0.000001 -5.108939 6.670907 66.927296 -2.108128 6.145176 38.206582 -0.000001 0.000002 -0.000003 0.000001 0.000000 -0.000002 0.000002 0.000000 -0.000000 0.000002 0.000000 -0.000000 0.000002 0.000000 -0.000000 0.000002 0.000000 -0.000000 0.000002 0.000000 0.000000 0.000000 0.000000 0.000000 0.000002 0.000000 -0.000000 0.000002 0.000000 0.000000 0.000000 0.000000 0.000000 0.000000 -0.000000 0.000000 0.000000 -0.000000 0.000000 -0.000002 0.000000 -0.000000 
0.081060 35.257042 -2.094997 -21.979528 -8.571331 6.591632 -0.000002 0.000001 -0.000000 -86.018180 5.027231 15.867839 74.816608 -1.232461 -2.527860 32.219081 4.575507 -1.118576 -0.000000 -0.000000 0.000000 -0.000000 -0.000000 0.000000 0.000000 -0.000000 0.000000 -89.217434 6.935252 -5.555809 73.574832 0.465510 2.465704 36.739321 -4.290391 -6.872796 0.000000 0.000000 -0.000000 0.000000 0.000000 -0.000000 0.000001 -0.000001 -0.000000 7.720812 0.750026 -2.752724 15.477402 1.573335 -5.409704 15.477396 1.573334 -5.409702 16.683116 -2.334689 2.516219 21.280308 -14.025852 15.902400 -0.000000 0.000000 -0.000001 -0.000000 0.000000 -0.000001 -0.000000 0.000000 -0.000001 -0.440557 2.438655 17.866042 7.150984 -27.922988 -61.927276 -178.070313 -97.726142 -177.434723 36.005827 15.584036 50.484787 40.341119 -21.311993 -22.411364 16.845150 37.868628 -12.409071 0.000000 -0.000001 0.000002 13.476040 10.903350 -59.579064 0.192532 0.566442 -33.032840 0.000000 -0.000000 -0.000004 8.813180 5.955599 -51.385221 -0.418271 -1.906588 -24.028855 0.000001 0.000000 -0.000003 6.639351 8.631763 -38.266616 -0.684397 -2.508393 -30.939364 0.000001 0.000000 -0.000002 -2.442245 21.724233 -31.526995 -1.552345 -4.447651 -40.920763 -0.000002 0.000002 -0.000005 -0.000003 -0.000002 0.000000 0.656734 0.357914 -1.294913 -33.143701 30.921069 51.554473 -0.036655 124.530440 0.101615 -54.248538 22.026831 -28.760694 -19.408334 -14.860427 17.029535 3.869725 -9.910398 -2.003429 -0.000002 0.000001 0.000000 -6.457548 -5.846198 17.047380 0.235611 -0.959859 24.748132 -0.000002 -0.000001 0.000002 -0.665597 -4.056792 38.990087 -0.618489 1.982953 34.012276 0.000001 -0.000001 -0.000000 -4.007840 2.235746 51.799581 -0.927106 3.020122 29.217644 0.000001 -0.000001 0.000004 -5.245718 6.737363 66.964773 -2.137563 6.181771 38.480183 0.000002 0.000000 0.000000 -0.000001 -0.000002 -0.000003 0.000000 0.000000 0.000000 0.000000 0.000000 0.000000 0.000000 0.000000 0.000000 0.000000 0.000000 0.000000 0.000000 0.000000 0.000000 0.000000 0.000000 0.000000 0.000000 0.000000 0.000000 0.000000 0.000000 0.000000 0.000000 0.000000 0.000000 -0.000000 -0.000000 0.000000 -0.000000 -0.000000 0.000000 -0.000002 0.000001 -0.000000 
0.074348 35.225479 -2.072918 -21.972124 -8.573279 6.601144 0.000002 0.000000 -0.000000 -86.085689 4.998301 15.878590 74.900934 -1.234443 -2.529960 32.198628 4.584984 -1.144780 0.000000 -0.000001 0.000000 0.000000 -0.000001 0.000000 -0.000001 -0.000000 -0.000000 -89.296295 6.944627 -5.541717 73.658474 0.466912 2.467825 36.727864 -4.280630 -6.891201 -0.000000 0.000000 -0.000000 -0.000000 0.000000 -0.000000 -0.000002 0.000001 0.000001 7.788931 0.740337 -2.758032 15.613186 1.550535 -5.420580 15.613187 1.550537 -5.420580 16.927753 -2.291192 2.415598 21.828829 -13.716435 15.443911 -0.000001 0.000001 -0.000001 -0.000001 0.000001 -0.000001 -0.000001 0.000001 -0.000001 -0.437254 2.435662 17.807032 6.932941 -27.441004 -62.178374 -178.678746 -97.434158 -178.072717 35.866146 15.184796 50.155049 40.089389 -20.963261 -23.236678 17.053393 38.082147 -12.523742 -0.000002 0.000001 -0.000000 13.904565 10.935490 -60.134871 0.192585 0.566428 -33.034244 -0.000002 0.000000 -0.000002 9.121664 5.993652 -52.211353 -0.418315 -1.906666 -24.030332 0.000003 0.000000 -0.000007 6.975854 8.835365 -39.026130 -0.684695 -2.508899 -30.946368 0.000001 -0.000000 -0.000004 -2.243432 21.522285 -31.532484 -1.594543 -4.494829 -41.458388 -0.000003 -0.000000 -0.000002 -0.000000 0.000002 -0.000002 0.661587 0.366690 -1.209425 -32.650702 31.556840 51.326064 -0.036296 124.535085 0.101913 -54.859714 22.326505 -28.719702 -19.407532 -15.018659 17.127492 3.896659 -9.966153 -1.999678 -0.000002 0.000002 -0.000003 -6.435776 -5.905170 17.025286 0.238889 -0.966211 24.936515 -0.000003 0.000001 0.000002 -0.646872 -4.119309 38.614871 -0.620683 1.986230 34.075810 0.000001 0.000000 -0.000000 -3.973110 2.200262 51.704915 -0.931063 3.027234 29.292759 0.000002 0.000003 0.000003 -5.376347 6.809480 66.924550 -2.168060 6.219294 38.761607 0.000003 0.000000 -0.000001 0.000001 -0.000001 -0.000004 0.000001 -0.000000 0.000000 0.000001 -0.000000 0.000000 0.000001 -0.000000 0.000000 0.000001 -0.000000 0.000000 0.000001 -0.000000 0.000000 -0.000001 -0.000000 -0.000000 0.000001 -0.000000 0.000000 0.000001 -0.000000 0.000000 -0.000001 -0.000000 -0.000000 0.000000 0.000000 -0.000000 0.000000 0.000000 -0.000000 0.000002 0.000000 -0.000000 
0.066245 35.180588 -2.050047 -21.964304 -8.575757 6.613939 0.000000 -0.000001 -0.000000 -86.171456 4.964678 15.889230 74.995395 -1.236044 -2.532270 32.180201 4.561536 -1.164086 -0.000000 -0.000000 0.000000 -0.000000 -0.000000 -0.000000 -0.000001 -0.000001 -0.000000 -89.397949 6.958269 -5.521797 73.759452 0.469827 2.470414 36.720391 -4.281524 -6.905547 0.000000 -0.000001 0.000000 0.000000 -0.000001 0.000000 0.000001 -0.000001 -0.000000 7.861721 0.724757 -2.755665 15.757974 1.518519 -5.414567 15.757982 1.518521 -5.414567 17.127941 -2.226866 2.204124 22.411181 -13.387206 15.033528 -0.000001 0.000000 0.000001 -0.000001 0.000000 0.000001 -0.000001 0.000000 0.000001 -0.434485 2.448584 17.714649 6.824283 -27.049923 -62.261054 -179.270281 -97.108310 -178.686601 36.158537 15.002049 50.091398 39.735486 -20.851060 -24.333927 17.229215 38.261190 -12.621201 0.000004 -0.000002 0.000002 14.429055 11.071997 -60.559196 0.193537 0.567587 -33.123856 -0.000001 0.000001 -0.000002 9.431580 5.986872 -53.168508 -0.418085 -1.906156 -24.023485 0.000001 -0.000001 -0.000002 7.384238 9.008446 -40.146530 -0.685410 -2.510056 -30.962412 -0.000000 -0.000001 0.000001 -1.859236 21.285900 -31.627731 -1.645305 -4.550428 -42.097540 0.000000 0.000000 0.000002 0.000002 0.000004 0.000000 0.659964 0.301112 -1.215752 -32.244572 32.428656 51.116583 -0.035907 124.528788 0.102543 -55.649291 22.732739 -28.959353 -19.401962 -15.239320 17.274184 3.923641 -10.021900 -1.995889 -0.000001 -0.000001 0.000001 -6.410754 -5.954300 17.167103 0.237790 -0.964103 24.873888 0.000001 -0.000002 0.000003 -0.651721 -4.129664 38.522827 -0.622192 1.988453 34.119110 0.000000 0.000003 -0.000003 -3.961339 2.173900 51.702541 -0.933373 3.031312 29.336322 -0.000002 0.000001 0.000001 -5.370983 6.828264 66.729767 -2.187975 6.243578 38.944537 -0.000000 0.000002 -0.000001 -0.000002 -0.000001 -0.000003 0.000001 0.000000 0.000001 0.000001 0.000000 0.000001 0.000001 0.000000 0.000001 0.000001 0.000000 0.000001 0.000001 0.000000 0.000001 -0.000001 0.000000 0.000000 0.000001 0.000000 0.000001 0.000001 0.000000 0.000001 -0.000001 0.000000 0.000000 0.000000 -0.000000 0.000000 0.000000 -0.000000 0.000000 0.000000 -0.000001 -0.000000 
